<?xml version="1.0" encoding="UTF-8" standalone="no"?>
<!DOCTYPE svg PUBLIC "-//W3C//DTD SVG 1.1//EN"
 "http://www.w3.org/Graphics/SVG/1.1/DTD/svg11.dtd">
<!-- Generated by graphviz version 2.43.0 (0)
 -->
<!-- Title: %3 Pages: 1 -->
<svg width="576pt" height="457pt"
 viewBox="0.00 0.00 576.00 457.10" xmlns="http://www.w3.org/2000/svg" xmlns:xlink="http://www.w3.org/1999/xlink">
<g id="graph0" class="graph" transform="scale(1.89 1.89) rotate(0) translate(4 861)">
<title>%3</title>
<polygon fill="white" stroke="transparent" points="-4,4 -4,-861 1086,-861 1086,4 -4,4"/>
<text text-anchor="middle" x="541" y="-841.8" font-family="Times,serif" font-size="14.00">YOLOv5</text>
<g id="clust1" class="cluster">
<title>cluster_.75</title>
<polygon fill="none" stroke="black" points="8,-136 8,-718 1074,-718 1074,-136 8,-136"/>
<text text-anchor="middle" x="541" y="-702.8" font-family="Times,serif" font-size="14.00">model (YOLO)</text>
</g>
<g id="clust2" class="cluster">
<title>cluster_model..35</title>
<polygon fill="none" stroke="black" points="16,-280 16,-571 730,-571 730,-280 16,-280"/>
<text text-anchor="middle" x="373" y="-555.8" font-family="Times,serif" font-size="14.00">model.head (YOLOHead)</text>
</g>
<!-- input_x -->
<g id="node1" class="node">
<title>input_x</title>
<ellipse fill="none" stroke="black" cx="492" cy="-816" rx="44.69" ry="18"/>
<text text-anchor="middle" x="492" y="-812.3" font-family="Times,serif" font-size="14.00">input_x</text>
</g>
<!-- .74 -->
<g id="node2" class="node">
<title>.74</title>
<polygon fill="none" stroke="black" points="601,-762 383,-762 383,-726 601,-726 601,-762"/>
<text text-anchor="middle" x="492" y="-740.3" font-family="Times,serif" font-size="14.00">transform (YOLOTransform)</text>
</g>
<!-- input_x&#45;&gt;.74 -->
<g id="edge1" class="edge">
<title>input_x&#45;&gt;.74</title>
<path fill="none" stroke="black" d="M492,-797.7C492,-789.98 492,-780.71 492,-772.11"/>
<polygon fill="black" stroke="black" points="495.5,-772.1 492,-762.1 488.5,-772.1 495.5,-772.1"/>
</g>
<!-- model.input_1 -->
<g id="node3" class="node">
<title>model.input_1</title>
<ellipse fill="none" stroke="black" cx="492" cy="-669" rx="76.89" ry="18"/>
<text text-anchor="middle" x="492" y="-665.3" font-family="Times,serif" font-size="14.00">model.input_1</text>
</g>
<!-- .74&#45;&gt;model.input_1 -->
<g id="edge2" class="edge">
<title>.74&#45;&gt;model.input_1</title>
<path fill="none" stroke="black" d="M492,-725.7C492,-717.25 492,-706.87 492,-697.37"/>
<polygon fill="black" stroke="black" points="495.5,-697.18 492,-687.18 488.5,-697.18 495.5,-697.18"/>
</g>
<!-- model..34 -->
<g id="node4" class="node">
<title>model..34</title>
<polygon fill="none" stroke="black" points="632,-615 352,-615 352,-579 632,-579 632,-615"/>
<text text-anchor="middle" x="492" y="-593.3" font-family="Times,serif" font-size="14.00">model.backbone (BackboneWithPAN)</text>
</g>
<!-- model.input_1&#45;&gt;model..34 -->
<g id="edge3" class="edge">
<title>model.input_1&#45;&gt;model..34</title>
<path fill="none" stroke="black" d="M492,-650.7C492,-642.98 492,-633.71 492,-625.11"/>
<polygon fill="black" stroke="black" points="495.5,-625.1 492,-615.1 488.5,-625.1 495.5,-625.1"/>
</g>
<!-- model.head.input_1 -->
<g id="node5" class="node">
<title>model.head.input_1</title>
<ellipse fill="none" stroke="black" cx="607" cy="-522" rx="102.08" ry="18"/>
<text text-anchor="middle" x="607" y="-518.3" font-family="Times,serif" font-size="14.00">model.head.input_1</text>
</g>
<!-- model..34&#45;&gt;model.head.input_1 -->
<g id="edge4" class="edge">
<title>model..34&#45;&gt;model.head.input_1</title>
<path fill="none" stroke="black" d="M518.96,-578.88C534.9,-568.76 555.26,-555.84 572.38,-544.98"/>
<polygon fill="black" stroke="black" points="574.43,-547.82 581,-539.51 570.68,-541.91 574.43,-547.82"/>
</g>
<!-- model.head.input_2 -->
<g id="node6" class="node">
<title>model.head.input_2</title>
<ellipse fill="none" stroke="black" cx="377" cy="-522" rx="102.08" ry="18"/>
<text text-anchor="middle" x="377" y="-518.3" font-family="Times,serif" font-size="14.00">model.head.input_2</text>
</g>
<!-- model..34&#45;&gt;model.head.input_2 -->
<g id="edge5" class="edge">
<title>model..34&#45;&gt;model.head.input_2</title>
<path fill="none" stroke="black" d="M465.04,-578.88C449.1,-568.76 428.74,-555.84 411.62,-544.98"/>
<polygon fill="black" stroke="black" points="413.32,-541.91 403,-539.51 409.57,-547.82 413.32,-541.91"/>
</g>
<!-- model.head.input_3 -->
<g id="node7" class="node">
<title>model.head.input_3</title>
<ellipse fill="none" stroke="black" cx="144" cy="-522" rx="102.08" ry="18"/>
<text text-anchor="middle" x="144" y="-518.3" font-family="Times,serif" font-size="14.00">model.head.input_3</text>
</g>
<!-- model..34&#45;&gt;model.head.input_3 -->
<g id="edge6" class="edge">
<title>model..34&#45;&gt;model.head.input_3</title>
<path fill="none" stroke="black" d="M351.74,-586.32C323.12,-582.72 293.4,-577.78 266,-571 239.03,-564.33 210.04,-553.11 187.09,-543.19"/>
<polygon fill="black" stroke="black" points="188.21,-539.86 177.65,-539.04 185.4,-546.27 188.21,-539.86"/>
</g>
<!-- model..36 -->
<g id="node13" class="node">
<title>model..36</title>
<polygon fill="none" stroke="black" points="1066.5,-324 737.5,-324 737.5,-288 1066.5,-288 1066.5,-324"/>
<text text-anchor="middle" x="902" y="-302.3" font-family="Times,serif" font-size="14.00">model.anchor_generator (AnchorGenerator)</text>
</g>
<!-- model..34&#45;&gt;model..36 -->
<g id="edge14" class="edge">
<title>model..34&#45;&gt;model..36</title>
<path fill="none" stroke="black" d="M632.06,-591.83C675.18,-588.34 716.03,-582.1 734,-571 824.96,-514.79 875.36,-388.97 893.8,-333.79"/>
<polygon fill="black" stroke="black" points="897.2,-334.64 896.97,-324.04 890.55,-332.47 897.2,-334.64"/>
</g>
<!-- model.head..98 -->
<g id="node8" class="node">
<title>model.head..98</title>
<polygon fill="none" stroke="black" points="722.5,-468 501.5,-468 501.5,-432 722.5,-432 722.5,-468"/>
<text text-anchor="middle" x="612" y="-446.3" font-family="Times,serif" font-size="14.00">model.head.head.0 (Conv2d)</text>
</g>
<!-- model.head.input_1&#45;&gt;model.head..98 -->
<g id="edge7" class="edge">
<title>model.head.input_1&#45;&gt;model.head..98</title>
<path fill="none" stroke="black" d="M608.24,-503.7C608.79,-495.98 609.45,-486.71 610.06,-478.11"/>
<polygon fill="black" stroke="black" points="613.56,-478.33 610.78,-468.1 606.57,-477.83 613.56,-478.33"/>
</g>
<!-- model.head..99 -->
<g id="node9" class="node">
<title>model.head..99</title>
<polygon fill="none" stroke="black" points="483.5,-468 262.5,-468 262.5,-432 483.5,-432 483.5,-468"/>
<text text-anchor="middle" x="373" y="-446.3" font-family="Times,serif" font-size="14.00">model.head.head.1 (Conv2d)</text>
</g>
<!-- model.head.input_2&#45;&gt;model.head..99 -->
<g id="edge8" class="edge">
<title>model.head.input_2&#45;&gt;model.head..99</title>
<path fill="none" stroke="black" d="M376.01,-503.7C375.57,-495.98 375.04,-486.71 374.55,-478.11"/>
<polygon fill="black" stroke="black" points="378.04,-477.89 373.98,-468.1 371.05,-478.29 378.04,-477.89"/>
</g>
<!-- model.head..100 -->
<g id="node10" class="node">
<title>model.head..100</title>
<polygon fill="none" stroke="black" points="244.5,-468 23.5,-468 23.5,-432 244.5,-432 244.5,-468"/>
<text text-anchor="middle" x="134" y="-446.3" font-family="Times,serif" font-size="14.00">model.head.head.2 (Conv2d)</text>
</g>
<!-- model.head.input_3&#45;&gt;model.head..100 -->
<g id="edge9" class="edge">
<title>model.head.input_3&#45;&gt;model.head..100</title>
<path fill="none" stroke="black" d="M141.53,-503.7C140.43,-495.98 139.1,-486.71 137.87,-478.11"/>
<polygon fill="black" stroke="black" points="141.32,-477.51 136.44,-468.1 134.39,-478.5 141.32,-477.51"/>
</g>
<!-- input_model.head.output_0 -->
<g id="node12" class="node">
<title>input_model.head.output_0</title>
<path fill="none" stroke="black" d="M477.5,-396C477.5,-396 386.5,-396 386.5,-396 380.5,-396 374.5,-390 374.5,-384 374.5,-384 374.5,-372 374.5,-372 374.5,-366 380.5,-360 386.5,-360 386.5,-360 477.5,-360 477.5,-360 483.5,-360 489.5,-366 489.5,-372 489.5,-372 489.5,-384 489.5,-384 489.5,-390 483.5,-396 477.5,-396"/>
<text text-anchor="middle" x="432" y="-374.3" font-family="Times,serif" font-size="14.00">permute view</text>
</g>
<!-- model.head..98&#45;&gt;input_model.head.output_0 -->
<g id="edge12" class="edge">
<title>model.head..98&#45;&gt;input_model.head.output_0</title>
<path fill="none" stroke="black" d="M567.97,-431.88C543.03,-422.18 511.66,-409.98 485.34,-399.74"/>
<polygon fill="black" stroke="black" points="486.48,-396.43 475.89,-396.07 483.94,-402.95 486.48,-396.43"/>
</g>
<!-- model.head..99&#45;&gt;input_model.head.output_0 -->
<g id="edge10" class="edge">
<title>model.head..99&#45;&gt;input_model.head.output_0</title>
<path fill="none" stroke="black" d="M387.58,-431.7C394.66,-423.3 403.28,-413.07 411.05,-403.86"/>
<polygon fill="black" stroke="black" points="413.81,-406.01 417.58,-396.1 408.46,-401.49 413.81,-406.01"/>
</g>
<!-- model.head..100&#45;&gt;input_model.head.output_0 -->
<g id="edge11" class="edge">
<title>model.head..100&#45;&gt;input_model.head.output_0</title>
<path fill="none" stroke="black" d="M206.52,-431.97C254.61,-420.67 317.29,-405.95 364.35,-394.89"/>
<polygon fill="black" stroke="black" points="365.21,-398.28 374.14,-392.59 363.61,-391.47 365.21,-398.28"/>
</g>
<!-- model.head.output_0 -->
<g id="node11" class="node">
<title>model.head.output_0</title>
<ellipse fill="none" stroke="black" cx="551" cy="-306" rx="108.58" ry="18"/>
<text text-anchor="middle" x="551" y="-302.3" font-family="Times,serif" font-size="14.00">model.head.output_0</text>
</g>
<!-- model..37 -->
<g id="node14" class="node">
<title>model..37</title>
<polygon fill="none" stroke="black" points="855,-252 597,-252 597,-216 855,-216 855,-252"/>
<text text-anchor="middle" x="726" y="-230.3" font-family="Times,serif" font-size="14.00">model.post_process (PostProcess)</text>
</g>
<!-- model.head.output_0&#45;&gt;model..37 -->
<g id="edge15" class="edge">
<title>model.head.output_0&#45;&gt;model..37</title>
<path fill="none" stroke="black" d="M590.71,-289.12C615.32,-279.27 647.2,-266.52 673.84,-255.86"/>
<polygon fill="black" stroke="black" points="675.4,-259.01 683.39,-252.04 672.8,-252.51 675.4,-259.01"/>
</g>
<!-- input_model.head.output_0&#45;&gt;model.head.output_0 -->
<g id="edge13" class="edge">
<title>input_model.head.output_0&#45;&gt;model.head.output_0</title>
<path fill="none" stroke="black" d="M461.11,-359.88C477.17,-350.43 497.26,-338.61 514.37,-328.55"/>
<polygon fill="black" stroke="black" points="516.16,-331.55 523.01,-323.47 512.62,-325.52 516.16,-331.55"/>
</g>
<!-- model..36&#45;&gt;model..37 -->
<g id="edge16" class="edge">
<title>model..36&#45;&gt;model..37</title>
<path fill="none" stroke="black" d="M858.95,-287.88C834.67,-278.22 804.16,-266.09 778.49,-255.88"/>
<polygon fill="black" stroke="black" points="779.5,-252.51 768.91,-252.07 776.91,-259.02 779.5,-252.51"/>
</g>
<!-- model.output_0 -->
<g id="node15" class="node">
<title>model.output_0</title>
<ellipse fill="none" stroke="black" cx="726" cy="-162" rx="83.39" ry="18"/>
<text text-anchor="middle" x="726" y="-158.3" font-family="Times,serif" font-size="14.00">model.output_0</text>
</g>
<!-- model..37&#45;&gt;model.output_0 -->
<g id="edge17" class="edge">
<title>model..37&#45;&gt;model.output_0</title>
<path fill="none" stroke="black" d="M726,-215.7C726,-207.98 726,-198.71 726,-190.11"/>
<polygon fill="black" stroke="black" points="729.5,-190.1 726,-180.1 722.5,-190.1 729.5,-190.1"/>
</g>
<!-- input_output_0 -->
<g id="node17" class="node">
<title>input_output_0</title>
<path fill="none" stroke="black" d="M800.5,-108C800.5,-108 651.5,-108 651.5,-108 645.5,-108 639.5,-102 639.5,-96 639.5,-96 639.5,-84 639.5,-84 639.5,-78 645.5,-72 651.5,-72 651.5,-72 800.5,-72 800.5,-72 806.5,-72 812.5,-78 812.5,-84 812.5,-84 812.5,-96 812.5,-96 812.5,-102 806.5,-108 800.5,-108"/>
<text text-anchor="middle" x="726" y="-86.3" font-family="Times,serif" font-size="14.00">mul div sub stack min</text>
</g>
<!-- model.output_0&#45;&gt;input_output_0 -->
<g id="edge18" class="edge">
<title>model.output_0&#45;&gt;input_output_0</title>
<path fill="none" stroke="black" d="M726,-143.7C726,-135.98 726,-126.71 726,-118.11"/>
<polygon fill="black" stroke="black" points="729.5,-118.1 726,-108.1 722.5,-118.1 729.5,-118.1"/>
</g>
<!-- output_0 -->
<g id="node16" class="node">
<title>output_0</title>
<ellipse fill="none" stroke="black" cx="726" cy="-18" rx="51.99" ry="18"/>
<text text-anchor="middle" x="726" y="-14.3" font-family="Times,serif" font-size="14.00">output_0</text>
</g>
<!-- input_output_0&#45;&gt;output_0 -->
<g id="edge19" class="edge">
<title>input_output_0&#45;&gt;output_0</title>
<path fill="none" stroke="black" d="M726,-71.7C726,-63.98 726,-54.71 726,-46.11"/>
<polygon fill="black" stroke="black" points="729.5,-46.1 726,-36.1 722.5,-46.1 729.5,-46.1"/>
</g>
</g>
</svg>
