<?xml version="1.0" encoding="UTF-8" standalone="no"?>
<!DOCTYPE svg PUBLIC "-//W3C//DTD SVG 1.1//EN"
 "http://www.w3.org/Graphics/SVG/1.1/DTD/svg11.dtd">
<!-- Generated by graphviz version 2.43.0 (0)
 -->
<!-- Title: %3 Pages: 1 -->
<svg width="576pt" height="206pt"
 viewBox="0.00 0.00 576.00 206.23" xmlns="http://www.w3.org/2000/svg" xmlns:xlink="http://www.w3.org/1999/xlink">
<g id="graph0" class="graph" transform="scale(4.71 4.71) rotate(0) translate(4 967)">
<title>%3</title>
<polygon fill="white" stroke="transparent" points="-4,4 -4,-967 2708,-967 2708,4 -4,4"/>
<text text-anchor="middle" x="1352" y="-947.8" font-family="Times,serif" font-size="14.00">YOLOv5</text>
<g id="clust1" class="cluster">
<title>cluster_.75</title>
<polygon fill="none" stroke="black" points="8,-136 8,-824 2696,-824 2696,-136 8,-136"/>
<text text-anchor="middle" x="1352" y="-808.8" font-family="Times,serif" font-size="14.00">model (YOLO)</text>
</g>
<g id="clust2" class="cluster">
<title>cluster_model..37</title>
<polygon fill="none" stroke="black" points="16,-208 16,-605 2688,-605 2688,-208 16,-208"/>
<text text-anchor="middle" x="1352" y="-589.8" font-family="Times,serif" font-size="14.00">model.post_process (PostProcess)</text>
</g>
<!-- input_x -->
<g id="node1" class="node">
<title>input_x</title>
<ellipse fill="none" stroke="black" cx="1203" cy="-922" rx="44.69" ry="18"/>
<text text-anchor="middle" x="1203" y="-918.3" font-family="Times,serif" font-size="14.00">input_x</text>
</g>
<!-- .74 -->
<g id="node2" class="node">
<title>.74</title>
<polygon fill="none" stroke="black" points="1312,-868 1094,-868 1094,-832 1312,-832 1312,-868"/>
<text text-anchor="middle" x="1203" y="-846.3" font-family="Times,serif" font-size="14.00">transform (YOLOTransform)</text>
</g>
<!-- input_x&#45;&gt;.74 -->
<g id="edge1" class="edge">
<title>input_x&#45;&gt;.74</title>
<path fill="none" stroke="black" d="M1203,-903.7C1203,-895.98 1203,-886.71 1203,-878.11"/>
<polygon fill="black" stroke="black" points="1206.5,-878.1 1203,-868.1 1199.5,-878.1 1206.5,-878.1"/>
</g>
<!-- model.input_1 -->
<g id="node3" class="node">
<title>model.input_1</title>
<ellipse fill="none" stroke="black" cx="1203" cy="-775" rx="76.89" ry="18"/>
<text text-anchor="middle" x="1203" y="-771.3" font-family="Times,serif" font-size="14.00">model.input_1</text>
</g>
<!-- .74&#45;&gt;model.input_1 -->
<g id="edge2" class="edge">
<title>.74&#45;&gt;model.input_1</title>
<path fill="none" stroke="black" d="M1203,-831.7C1203,-823.25 1203,-812.87 1203,-803.37"/>
<polygon fill="black" stroke="black" points="1206.5,-803.18 1203,-793.18 1199.5,-803.18 1206.5,-803.18"/>
</g>
<!-- model..34 -->
<g id="node4" class="node">
<title>model..34</title>
<polygon fill="none" stroke="black" points="1343,-721 1063,-721 1063,-685 1343,-685 1343,-721"/>
<text text-anchor="middle" x="1203" y="-699.3" font-family="Times,serif" font-size="14.00">model.backbone (BackboneWithPAN)</text>
</g>
<!-- model.input_1&#45;&gt;model..34 -->
<g id="edge3" class="edge">
<title>model.input_1&#45;&gt;model..34</title>
<path fill="none" stroke="black" d="M1203,-756.7C1203,-748.98 1203,-739.71 1203,-731.11"/>
<polygon fill="black" stroke="black" points="1206.5,-731.1 1203,-721.1 1199.5,-731.1 1206.5,-731.1"/>
</g>
<!-- model..35 -->
<g id="node5" class="node">
<title>model..35</title>
<polygon fill="none" stroke="black" points="705,-649 513,-649 513,-613 705,-613 705,-649"/>
<text text-anchor="middle" x="609" y="-627.3" font-family="Times,serif" font-size="14.00">model.head (YOLOHead)</text>
</g>
<!-- model..34&#45;&gt;model..35 -->
<g id="edge4" class="edge">
<title>model..34&#45;&gt;model..35</title>
<path fill="none" stroke="black" d="M1062.98,-685.5C956.64,-672.97 812.63,-656 715.56,-644.56"/>
<polygon fill="black" stroke="black" points="715.77,-641.06 705.43,-643.36 714.95,-648.01 715.77,-641.06"/>
</g>
<!-- model..36 -->
<g id="node6" class="node">
<title>model..36</title>
<polygon fill="none" stroke="black" points="1813.5,-649 1484.5,-649 1484.5,-613 1813.5,-613 1813.5,-649"/>
<text text-anchor="middle" x="1649" y="-627.3" font-family="Times,serif" font-size="14.00">model.anchor_generator (AnchorGenerator)</text>
</g>
<!-- model..34&#45;&gt;model..36 -->
<g id="edge5" class="edge">
<title>model..34&#45;&gt;model..36</title>
<path fill="none" stroke="black" d="M1311.53,-684.97C1377.77,-674.57 1462.48,-661.27 1530.46,-650.6"/>
<polygon fill="black" stroke="black" points="1531.03,-654.06 1540.37,-649.05 1529.95,-647.14 1531.03,-654.06"/>
</g>
<!-- model.post_process.input_1 -->
<g id="node7" class="node">
<title>model.post_process.input_1</title>
<ellipse fill="none" stroke="black" cx="461" cy="-556" rx="139.98" ry="18"/>
<text text-anchor="middle" x="461" y="-552.3" font-family="Times,serif" font-size="14.00">model.post_process.input_1</text>
</g>
<!-- model..35&#45;&gt;model.post_process.input_1 -->
<g id="edge6" class="edge">
<title>model..35&#45;&gt;model.post_process.input_1</title>
<path fill="none" stroke="black" d="M574.3,-612.88C553.12,-602.44 525.9,-589.01 503.45,-577.94"/>
<polygon fill="black" stroke="black" points="504.98,-574.79 494.46,-573.51 501.88,-581.07 504.98,-574.79"/>
</g>
<!-- model.post_process.input_4 -->
<g id="node10" class="node">
<title>model.post_process.input_4</title>
<ellipse fill="none" stroke="black" cx="164" cy="-556" rx="139.98" ry="18"/>
<text text-anchor="middle" x="164" y="-552.3" font-family="Times,serif" font-size="14.00">model.post_process.input_4</text>
</g>
<!-- model..35&#45;&gt;model.post_process.input_4 -->
<g id="edge9" class="edge">
<title>model..35&#45;&gt;model.post_process.input_4</title>
<path fill="none" stroke="black" d="M512.91,-627.5C454.37,-624.6 378.32,-618.36 312,-605 279.07,-598.37 243.22,-586.85 215.05,-576.77"/>
<polygon fill="black" stroke="black" points="216.01,-573.39 205.42,-573.27 213.62,-579.97 216.01,-573.39"/>
</g>
<!-- model.post_process.input_7 -->
<g id="node13" class="node">
<title>model.post_process.input_7</title>
<ellipse fill="none" stroke="black" cx="758" cy="-556" rx="139.98" ry="18"/>
<text text-anchor="middle" x="758" y="-552.3" font-family="Times,serif" font-size="14.00">model.post_process.input_7</text>
</g>
<!-- model..35&#45;&gt;model.post_process.input_7 -->
<g id="edge12" class="edge">
<title>model..35&#45;&gt;model.post_process.input_7</title>
<path fill="none" stroke="black" d="M643.93,-612.88C665.25,-602.44 692.66,-589.01 715.27,-577.94"/>
<polygon fill="black" stroke="black" points="716.87,-581.05 724.31,-573.51 713.79,-574.76 716.87,-581.05"/>
</g>
<!-- model.post_process.input_2 -->
<g id="node8" class="node">
<title>model.post_process.input_2</title>
<ellipse fill="none" stroke="black" cx="1649" cy="-556" rx="139.98" ry="18"/>
<text text-anchor="middle" x="1649" y="-552.3" font-family="Times,serif" font-size="14.00">model.post_process.input_2</text>
</g>
<!-- model..36&#45;&gt;model.post_process.input_2 -->
<g id="edge7" class="edge">
<title>model..36&#45;&gt;model.post_process.input_2</title>
<path fill="none" stroke="black" d="M1649,-612.7C1649,-604.25 1649,-593.87 1649,-584.37"/>
<polygon fill="black" stroke="black" points="1652.5,-584.18 1649,-574.18 1645.5,-584.18 1652.5,-584.18"/>
</g>
<!-- model.post_process.input_3 -->
<g id="node9" class="node">
<title>model.post_process.input_3</title>
<ellipse fill="none" stroke="black" cx="1055" cy="-556" rx="139.98" ry="18"/>
<text text-anchor="middle" x="1055" y="-552.3" font-family="Times,serif" font-size="14.00">model.post_process.input_3</text>
</g>
<!-- model..36&#45;&gt;model.post_process.input_3 -->
<g id="edge8" class="edge">
<title>model..36&#45;&gt;model.post_process.input_3</title>
<path fill="none" stroke="black" d="M1484.47,-625.19C1380.18,-621.28 1255.41,-614.8 1203,-605 1169.63,-598.76 1133.35,-587.08 1105.07,-576.8"/>
<polygon fill="black" stroke="black" points="1106.01,-573.42 1095.41,-573.24 1103.58,-579.98 1106.01,-573.42"/>
</g>
<!-- model.post_process.input_5 -->
<g id="node11" class="node">
<title>model.post_process.input_5</title>
<ellipse fill="none" stroke="black" cx="2243" cy="-556" rx="139.98" ry="18"/>
<text text-anchor="middle" x="2243" y="-552.3" font-family="Times,serif" font-size="14.00">model.post_process.input_5</text>
</g>
<!-- model..36&#45;&gt;model.post_process.input_5 -->
<g id="edge10" class="edge">
<title>model..36&#45;&gt;model.post_process.input_5</title>
<path fill="none" stroke="black" d="M1813.53,-625.19C1917.82,-621.28 2042.59,-614.8 2095,-605 2128.37,-598.76 2164.65,-587.08 2192.93,-576.8"/>
<polygon fill="black" stroke="black" points="2194.42,-579.98 2202.59,-573.24 2191.99,-573.42 2194.42,-579.98"/>
</g>
<!-- model.post_process.input_6 -->
<g id="node12" class="node">
<title>model.post_process.input_6</title>
<ellipse fill="none" stroke="black" cx="2540" cy="-556" rx="139.98" ry="18"/>
<text text-anchor="middle" x="2540" y="-552.3" font-family="Times,serif" font-size="14.00">model.post_process.input_6</text>
</g>
<!-- model..36&#45;&gt;model.post_process.input_6 -->
<g id="edge11" class="edge">
<title>model..36&#45;&gt;model.post_process.input_6</title>
<path fill="none" stroke="black" d="M1813.76,-629.81C1998.18,-628.65 2285.14,-623.74 2392,-605 2425.56,-599.11 2461.97,-587.38 2490.29,-576.98"/>
<polygon fill="black" stroke="black" points="2491.8,-580.15 2499.95,-573.37 2489.35,-573.59 2491.8,-580.15"/>
</g>
<!-- model.post_process.input_8 -->
<g id="node14" class="node">
<title>model.post_process.input_8</title>
<ellipse fill="none" stroke="black" cx="1352" cy="-556" rx="139.98" ry="18"/>
<text text-anchor="middle" x="1352" y="-552.3" font-family="Times,serif" font-size="14.00">model.post_process.input_8</text>
</g>
<!-- model..36&#45;&gt;model.post_process.input_8 -->
<g id="edge13" class="edge">
<title>model..36&#45;&gt;model.post_process.input_8</title>
<path fill="none" stroke="black" d="M1536.77,-613C1524.31,-610.57 1511.85,-607.9 1500,-605 1468.2,-597.22 1433.33,-586.05 1405.43,-576.44"/>
<polygon fill="black" stroke="black" points="1406.47,-573.09 1395.87,-573.11 1404.17,-579.7 1406.47,-573.09"/>
</g>
<!-- model.post_process.input_9 -->
<g id="node15" class="node">
<title>model.post_process.input_9</title>
<ellipse fill="none" stroke="black" cx="1946" cy="-556" rx="139.98" ry="18"/>
<text text-anchor="middle" x="1946" y="-552.3" font-family="Times,serif" font-size="14.00">model.post_process.input_9</text>
</g>
<!-- model..36&#45;&gt;model.post_process.input_9 -->
<g id="edge14" class="edge">
<title>model..36&#45;&gt;model.post_process.input_9</title>
<path fill="none" stroke="black" d="M1761.23,-613C1773.69,-610.57 1786.15,-607.9 1798,-605 1829.8,-597.22 1864.67,-586.05 1892.57,-576.44"/>
<polygon fill="black" stroke="black" points="1893.83,-579.7 1902.13,-573.11 1891.53,-573.09 1893.83,-579.7"/>
</g>
<!-- model.post_process.boxes.5 -->
<g id="node17" class="node">
<title>model.post_process.boxes.5</title>
<path fill="none" stroke="black" d="M1417,-502C1417,-502 1253,-502 1253,-502 1247,-502 1241,-496 1241,-490 1241,-490 1241,-461 1241,-461 1241,-455 1247,-449 1253,-449 1253,-449 1417,-449 1417,-449 1423,-449 1429,-455 1429,-461 1429,-461 1429,-490 1429,-490 1429,-496 1423,-502 1417,-502"/>
<text text-anchor="middle" x="1335" y="-486.8" font-family="Times,serif" font-size="14.00">cat sub view sigmoid</text>
<text text-anchor="middle" x="1335" y="-471.8" font-family="Times,serif" font-size="14.00">gt where stack mul pow</text>
<text text-anchor="middle" x="1335" y="-456.8" font-family="Times,serif" font-size="14.00">add</text>
</g>
<!-- model.post_process.input_1&#45;&gt;model.post_process.boxes.5 -->
<g id="edge23" class="edge">
<title>model.post_process.input_1&#45;&gt;model.post_process.boxes.5</title>
<path fill="none" stroke="black" d="M558.44,-543.01C575.29,-541.17 592.64,-539.41 609,-538 881.95,-514.46 955.97,-542.8 1230.57,-502.09"/>
<polygon fill="black" stroke="black" points="1231.47,-505.5 1240.84,-500.55 1230.43,-498.57 1231.47,-505.5"/>
</g>
<!-- model.post_process.scores -->
<g id="node18" class="node">
<title>model.post_process.scores</title>
<path fill="none" stroke="black" d="M1614.5,-494.5C1614.5,-494.5 1459.5,-494.5 1459.5,-494.5 1453.5,-494.5 1447.5,-488.5 1447.5,-482.5 1447.5,-482.5 1447.5,-468.5 1447.5,-468.5 1447.5,-462.5 1453.5,-456.5 1459.5,-456.5 1459.5,-456.5 1614.5,-456.5 1614.5,-456.5 1620.5,-456.5 1626.5,-462.5 1626.5,-468.5 1626.5,-468.5 1626.5,-482.5 1626.5,-482.5 1626.5,-488.5 1620.5,-494.5 1614.5,-494.5"/>
<text text-anchor="middle" x="1537" y="-479.3" font-family="Times,serif" font-size="14.00">view sigmoid gt where</text>
<text text-anchor="middle" x="1537" y="-464.3" font-family="Times,serif" font-size="14.00">mul pow add sub cat</text>
</g>
<!-- model.post_process.input_1&#45;&gt;model.post_process.scores -->
<g id="edge33" class="edge">
<title>model.post_process.input_1&#45;&gt;model.post_process.scores</title>
<path fill="none" stroke="black" d="M557.23,-542.94C574.45,-541.07 592.24,-539.32 609,-538 976.64,-508.94 1073.23,-556.29 1438,-502 1446.9,-500.68 1456.15,-498.88 1465.27,-496.84"/>
<polygon fill="black" stroke="black" points="1466.14,-500.23 1475.09,-494.56 1464.56,-493.42 1466.14,-500.23"/>
</g>
<!-- model.post_process.labels -->
<g id="node19" class="node">
<title>model.post_process.labels</title>
<path fill="none" stroke="black" d="M1211,-494.5C1211,-494.5 1059,-494.5 1059,-494.5 1053,-494.5 1047,-488.5 1047,-482.5 1047,-482.5 1047,-468.5 1047,-468.5 1047,-462.5 1053,-456.5 1059,-456.5 1059,-456.5 1211,-456.5 1211,-456.5 1217,-456.5 1223,-462.5 1223,-468.5 1223,-468.5 1223,-482.5 1223,-482.5 1223,-488.5 1217,-494.5 1211,-494.5"/>
<text text-anchor="middle" x="1135" y="-479.3" font-family="Times,serif" font-size="14.00">cat sub view sigmoid</text>
<text text-anchor="middle" x="1135" y="-464.3" font-family="Times,serif" font-size="14.00">gt where mul pow add</text>
</g>
<!-- model.post_process.input_1&#45;&gt;model.post_process.labels -->
<g id="edge43" class="edge">
<title>model.post_process.input_1&#45;&gt;model.post_process.labels</title>
<path fill="none" stroke="black" d="M560.81,-543.37C688.81,-528.47 909.4,-502.78 1036.67,-487.95"/>
<polygon fill="black" stroke="black" points="1037.28,-491.41 1046.8,-486.77 1036.47,-484.45 1037.28,-491.41"/>
</g>
<!-- input_model.post_process.output_0 -->
<g id="node21" class="node">
<title>input_model.post_process.output_0</title>
<path fill="none" stroke="black" d="M1645.5,-341C1645.5,-341 1490.5,-341 1490.5,-341 1484.5,-341 1478.5,-335 1478.5,-329 1478.5,-329 1478.5,-300 1478.5,-300 1478.5,-294 1484.5,-288 1490.5,-288 1490.5,-288 1645.5,-288 1645.5,-288 1651.5,-288 1657.5,-294 1657.5,-300 1657.5,-300 1657.5,-329 1657.5,-329 1657.5,-335 1651.5,-341 1645.5,-341"/>
<text text-anchor="middle" x="1568" y="-325.8" font-family="Times,serif" font-size="14.00">view sigmoid gt where</text>
<text text-anchor="middle" x="1568" y="-310.8" font-family="Times,serif" font-size="14.00">mul pow sub add cat</text>
<text text-anchor="middle" x="1568" y="-295.8" font-family="Times,serif" font-size="14.00">stack</text>
</g>
<!-- model.post_process.input_1&#45;&gt;input_model.post_process.output_0 -->
<g id="edge48" class="edge">
<title>model.post_process.input_1&#45;&gt;input_model.post_process.output_0</title>
<path fill="none" stroke="black" d="M500.21,-538.6C587.21,-502.95 803.64,-418.3 993,-377 1157.25,-341.18 1352.63,-325.91 1468.15,-319.63"/>
<polygon fill="black" stroke="black" points="1468.59,-323.11 1478.39,-319.08 1468.22,-316.12 1468.59,-323.11"/>
</g>
<!-- model.post_process.input_2&#45;&gt;model.post_process.boxes.5 -->
<g id="edge21" class="edge">
<title>model.post_process.input_2&#45;&gt;model.post_process.boxes.5</title>
<path fill="none" stroke="black" d="M1588.09,-539.77C1545.78,-529.2 1488.36,-514.84 1438.91,-502.48"/>
<polygon fill="black" stroke="black" points="1439.68,-499.06 1429.13,-500.03 1437.98,-505.85 1439.68,-499.06"/>
</g>
<!-- model.post_process.input_2&#45;&gt;model.post_process.scores -->
<g id="edge31" class="edge">
<title>model.post_process.input_2&#45;&gt;model.post_process.scores</title>
<path fill="none" stroke="black" d="M1624.97,-538.16C1609.29,-527.16 1588.56,-512.64 1571.17,-500.45"/>
<polygon fill="black" stroke="black" points="1573.14,-497.55 1562.94,-494.68 1569.12,-503.29 1573.14,-497.55"/>
</g>
<!-- model.post_process.input_2&#45;&gt;model.post_process.labels -->
<g id="edge41" class="edge">
<title>model.post_process.input_2&#45;&gt;model.post_process.labels</title>
<path fill="none" stroke="black" d="M1550.75,-543.2C1437.37,-529.47 1262.54,-507.93 1232,-502 1224.43,-500.53 1216.57,-498.81 1208.76,-496.96"/>
<polygon fill="black" stroke="black" points="1209.45,-493.52 1198.91,-494.56 1207.8,-500.33 1209.45,-493.52"/>
</g>
<!-- model.post_process.input_2&#45;&gt;input_model.post_process.output_0 -->
<g id="edge53" class="edge">
<title>model.post_process.input_2&#45;&gt;input_model.post_process.output_0</title>
<path fill="none" stroke="black" d="M1654.11,-537.9C1662.99,-504.77 1677.9,-430.41 1651,-377 1645.21,-365.5 1636.13,-355.61 1626.08,-347.34"/>
<polygon fill="black" stroke="black" points="1627.92,-344.34 1617.84,-341.05 1623.67,-349.9 1627.92,-344.34"/>
</g>
<!-- model.post_process.input_3&#45;&gt;model.post_process.boxes.5 -->
<g id="edge18" class="edge">
<title>model.post_process.input_3&#45;&gt;model.post_process.boxes.5</title>
<path fill="none" stroke="black" d="M1110.65,-539.4C1145.94,-529.5 1192.63,-516.41 1234.27,-504.74"/>
<polygon fill="black" stroke="black" points="1235.22,-508.11 1243.9,-502.04 1233.33,-501.37 1235.22,-508.11"/>
</g>
<!-- model.post_process.input_3&#45;&gt;model.post_process.scores -->
<g id="edge28" class="edge">
<title>model.post_process.input_3&#45;&gt;model.post_process.scores</title>
<path fill="none" stroke="black" d="M1151.3,-542.96C1246.31,-530.84 1384.82,-512.49 1438,-502 1445.65,-500.49 1453.59,-498.75 1461.5,-496.9"/>
<polygon fill="black" stroke="black" points="1462.57,-500.24 1471.47,-494.5 1460.93,-493.43 1462.57,-500.24"/>
</g>
<!-- model.post_process.input_3&#45;&gt;model.post_process.labels -->
<g id="edge38" class="edge">
<title>model.post_process.input_3&#45;&gt;model.post_process.labels</title>
<path fill="none" stroke="black" d="M1072.36,-537.97C1083.17,-527.36 1097.26,-513.53 1109.35,-501.67"/>
<polygon fill="black" stroke="black" points="1111.88,-504.09 1116.56,-494.59 1106.97,-499.1 1111.88,-504.09"/>
</g>
<!-- model.post_process.input_3&#45;&gt;input_model.post_process.output_0 -->
<g id="edge52" class="edge">
<title>model.post_process.input_3&#45;&gt;input_model.post_process.output_0</title>
<path fill="none" stroke="black" d="M1045.09,-537.72C1033.56,-515.04 1018.43,-475.09 1038,-449 1089.1,-380.87 1329.13,-342.65 1468.01,-325.89"/>
<polygon fill="black" stroke="black" points="1468.73,-329.33 1478.24,-324.67 1467.9,-322.38 1468.73,-329.33"/>
</g>
<!-- model.post_process.input_4&#45;&gt;model.post_process.boxes.5 -->
<g id="edge15" class="edge">
<title>model.post_process.input_4&#45;&gt;model.post_process.boxes.5</title>
<path fill="none" stroke="black" d="M260.23,-542.88C277.45,-541.02 295.24,-539.29 312,-538 716.71,-506.88 825.11,-558.62 1230.9,-502.02"/>
<polygon fill="black" stroke="black" points="1231.44,-505.48 1240.85,-500.62 1230.46,-498.55 1231.44,-505.48"/>
</g>
<!-- model.post_process.input_4&#45;&gt;model.post_process.scores -->
<g id="edge25" class="edge">
<title>model.post_process.input_4&#45;&gt;model.post_process.scores</title>
<path fill="none" stroke="black" d="M259.82,-542.83C277.17,-540.96 295.1,-539.24 312,-538 811.36,-501.4 942.34,-572.87 1438,-502 1447.03,-500.71 1456.43,-498.91 1465.68,-496.85"/>
<polygon fill="black" stroke="black" points="1466.69,-500.21 1475.64,-494.54 1465.1,-493.39 1466.69,-500.21"/>
</g>
<!-- model.post_process.input_4&#45;&gt;model.post_process.labels -->
<g id="edge35" class="edge">
<title>model.post_process.input_4&#45;&gt;model.post_process.labels</title>
<path fill="none" stroke="black" d="M262.26,-543.16C278.85,-541.32 295.91,-539.52 312,-538 573.27,-513.24 881.99,-492.43 1036.5,-482.59"/>
<polygon fill="black" stroke="black" points="1037.15,-486.06 1046.9,-481.93 1036.7,-479.07 1037.15,-486.06"/>
</g>
<!-- model.post_process.input_4&#45;&gt;input_model.post_process.output_0 -->
<g id="edge45" class="edge">
<title>model.post_process.input_4&#45;&gt;input_model.post_process.output_0</title>
<path fill="none" stroke="black" d="M213.3,-539.14C325.18,-503.82 607.45,-418.55 850,-377 1068.65,-339.54 1328.86,-324.47 1468.17,-318.74"/>
<polygon fill="black" stroke="black" points="1468.55,-322.23 1478.4,-318.33 1468.26,-315.24 1468.55,-322.23"/>
</g>
<!-- model.post_process.input_5&#45;&gt;model.post_process.boxes.5 -->
<g id="edge16" class="edge">
<title>model.post_process.input_5&#45;&gt;model.post_process.boxes.5</title>
<path fill="none" stroke="black" d="M2145.96,-543.02C2128.99,-541.16 2111.49,-539.4 2095,-538 1807.32,-513.61 1729.56,-544.25 1439.21,-501.88"/>
<polygon fill="black" stroke="black" points="1439.63,-498.41 1429.23,-500.41 1438.61,-505.33 1439.63,-498.41"/>
</g>
<!-- model.post_process.input_5&#45;&gt;model.post_process.scores -->
<g id="edge26" class="edge">
<title>model.post_process.input_5&#45;&gt;model.post_process.scores</title>
<path fill="none" stroke="black" d="M2142.7,-543.42C2126.74,-541.59 2110.42,-539.74 2095,-538 1934.87,-519.98 1748.82,-499.58 1637.13,-487.4"/>
<polygon fill="black" stroke="black" points="1637.21,-483.88 1626.89,-486.28 1636.45,-490.84 1637.21,-483.88"/>
</g>
<!-- model.post_process.input_5&#45;&gt;model.post_process.labels -->
<g id="edge36" class="edge">
<title>model.post_process.input_5&#45;&gt;model.post_process.labels</title>
<path fill="none" stroke="black" d="M2146.77,-542.92C2129.55,-541.05 2111.76,-539.31 2095,-538 1712.28,-508.08 1611.61,-559.13 1232,-502 1223.31,-500.69 1214.27,-498.91 1205.36,-496.89"/>
<polygon fill="black" stroke="black" points="1205.92,-493.42 1195.38,-494.51 1204.3,-500.23 1205.92,-493.42"/>
</g>
<!-- model.post_process.input_5&#45;&gt;input_model.post_process.output_0 -->
<g id="edge50" class="edge">
<title>model.post_process.input_5&#45;&gt;input_model.post_process.output_0</title>
<path fill="none" stroke="black" d="M2197.66,-538.91C2085.33,-499.06 1792.87,-395.29 1649.56,-344.44"/>
<polygon fill="black" stroke="black" points="1650.51,-341.06 1639.92,-341.02 1648.17,-347.66 1650.51,-341.06"/>
</g>
<!-- model.post_process.input_6&#45;&gt;model.post_process.boxes.5 -->
<g id="edge22" class="edge">
<title>model.post_process.input_6&#45;&gt;model.post_process.boxes.5</title>
<path fill="none" stroke="black" d="M2443.77,-542.86C2426.55,-541 2408.76,-539.28 2392,-538 1972.67,-506.04 1860.51,-559.92 1439.23,-501.88"/>
<polygon fill="black" stroke="black" points="1439.61,-498.4 1429.22,-500.48 1438.64,-505.33 1439.61,-498.4"/>
</g>
<!-- model.post_process.input_6&#45;&gt;model.post_process.scores -->
<g id="edge32" class="edge">
<title>model.post_process.input_6&#45;&gt;model.post_process.scores</title>
<path fill="none" stroke="black" d="M2441.74,-543.12C2425.15,-541.28 2408.09,-539.5 2392,-538 2119.23,-512.54 1796.65,-491.89 1636.94,-482.3"/>
<polygon fill="black" stroke="black" points="1636.84,-478.79 1626.65,-481.69 1636.43,-485.78 1636.84,-478.79"/>
</g>
<!-- model.post_process.input_6&#45;&gt;model.post_process.labels -->
<g id="edge42" class="edge">
<title>model.post_process.input_6&#45;&gt;model.post_process.labels</title>
<path fill="none" stroke="black" d="M2444.18,-542.81C2426.83,-540.94 2408.9,-539.23 2392,-538 1877.56,-500.54 1742.46,-576.04 1232,-502 1223.14,-500.72 1213.93,-498.92 1204.86,-496.87"/>
<polygon fill="black" stroke="black" points="1205.64,-493.45 1195.11,-494.55 1204.03,-500.27 1205.64,-493.45"/>
</g>
<!-- model.post_process.input_6&#45;&gt;input_model.post_process.output_0 -->
<g id="edge54" class="edge">
<title>model.post_process.input_6&#45;&gt;input_model.post_process.output_0</title>
<path fill="none" stroke="black" d="M2478.46,-539.84C2314.82,-499.52 1867.79,-389.37 1667.44,-340"/>
<polygon fill="black" stroke="black" points="1668.05,-336.55 1657.5,-337.55 1666.38,-343.34 1668.05,-336.55"/>
</g>
<!-- model.post_process.input_7&#45;&gt;model.post_process.boxes.5 -->
<g id="edge19" class="edge">
<title>model.post_process.input_7&#45;&gt;model.post_process.boxes.5</title>
<path fill="none" stroke="black" d="M858.3,-543.42C874.26,-541.59 890.58,-539.74 906,-538 1047.6,-522.05 1086.75,-527.32 1230.72,-502.14"/>
<polygon fill="black" stroke="black" points="1231.57,-505.54 1240.81,-500.35 1230.35,-498.65 1231.57,-505.54"/>
</g>
<!-- model.post_process.input_7&#45;&gt;model.post_process.scores -->
<g id="edge29" class="edge">
<title>model.post_process.input_7&#45;&gt;model.post_process.scores</title>
<path fill="none" stroke="black" d="M855.85,-543.11C872.57,-541.26 889.77,-539.48 906,-538 1142.01,-516.47 1204.04,-539.72 1438,-502 1446.59,-500.61 1455.53,-498.82 1464.36,-496.83"/>
<polygon fill="black" stroke="black" points="1465.32,-500.2 1474.26,-494.52 1463.72,-493.39 1465.32,-500.2"/>
</g>
<!-- model.post_process.input_7&#45;&gt;model.post_process.labels -->
<g id="edge39" class="edge">
<title>model.post_process.input_7&#45;&gt;model.post_process.labels</title>
<path fill="none" stroke="black" d="M828.03,-540.42C887.27,-528.08 972.77,-510.28 1038.5,-496.59"/>
<polygon fill="black" stroke="black" points="1039.38,-499.98 1048.46,-494.52 1037.96,-493.13 1039.38,-499.98"/>
</g>
<!-- model.post_process.input_7&#45;&gt;input_model.post_process.output_0 -->
<g id="edge46" class="edge">
<title>model.post_process.input_7&#45;&gt;input_model.post_process.output_0</title>
<path fill="none" stroke="black" d="M781.68,-538.07C833.81,-501.76 963.6,-416.48 1086,-377 1213.88,-335.75 1369.22,-322.02 1468.34,-317.54"/>
<polygon fill="black" stroke="black" points="1468.51,-321.03 1478.35,-317.11 1468.21,-314.04 1468.51,-321.03"/>
</g>
<!-- model.post_process.input_8&#45;&gt;model.post_process.boxes.5 -->
<g id="edge17" class="edge">
<title>model.post_process.input_8&#45;&gt;model.post_process.boxes.5</title>
<path fill="none" stroke="black" d="M1348.31,-537.97C1346.67,-530.37 1344.66,-521.11 1342.71,-512.11"/>
<polygon fill="black" stroke="black" points="1346.09,-511.19 1340.56,-502.16 1339.25,-512.67 1346.09,-511.19"/>
</g>
<!-- model.post_process.input_8&#45;&gt;model.post_process.scores -->
<g id="edge27" class="edge">
<title>model.post_process.input_8&#45;&gt;model.post_process.scores</title>
<path fill="none" stroke="black" d="M1390.78,-538.54C1418.13,-526.94 1455.05,-511.27 1484.96,-498.58"/>
<polygon fill="black" stroke="black" points="1486.56,-501.71 1494.4,-494.58 1483.82,-495.26 1486.56,-501.71"/>
</g>
<!-- model.post_process.input_8&#45;&gt;model.post_process.labels -->
<g id="edge37" class="edge">
<title>model.post_process.input_8&#45;&gt;model.post_process.labels</title>
<path fill="none" stroke="black" d="M1307.56,-538.92C1275.03,-527.16 1230.54,-511.06 1194.88,-498.16"/>
<polygon fill="black" stroke="black" points="1195.66,-494.72 1185.07,-494.61 1193.28,-501.31 1195.66,-494.72"/>
</g>
<!-- model.post_process.input_8&#45;&gt;input_model.post_process.output_0 -->
<g id="edge51" class="edge">
<title>model.post_process.input_8&#45;&gt;input_model.post_process.output_0</title>
<path fill="none" stroke="black" d="M1449.27,-543.02C1526.63,-532.49 1623.86,-516.61 1636,-502 1673.49,-456.86 1631.03,-389.26 1598.39,-349.05"/>
<polygon fill="black" stroke="black" points="1600.89,-346.59 1591.81,-341.15 1595.51,-351.07 1600.89,-346.59"/>
</g>
<!-- model.post_process.input_9&#45;&gt;model.post_process.boxes.5 -->
<g id="edge20" class="edge">
<title>model.post_process.input_9&#45;&gt;model.post_process.boxes.5</title>
<path fill="none" stroke="black" d="M1846.11,-543.33C1830.03,-541.51 1813.56,-539.67 1798,-538 1641.83,-521.2 1598.79,-528.83 1439.42,-501.96"/>
<polygon fill="black" stroke="black" points="1439.71,-498.46 1429.26,-500.22 1438.53,-505.36 1439.71,-498.46"/>
</g>
<!-- model.post_process.input_9&#45;&gt;model.post_process.scores -->
<g id="edge30" class="edge">
<title>model.post_process.input_9&#45;&gt;model.post_process.scores</title>
<path fill="none" stroke="black" d="M1871.46,-540.69C1805.66,-528.06 1709.22,-509.55 1636.78,-495.65"/>
<polygon fill="black" stroke="black" points="1637.2,-492.17 1626.72,-493.72 1635.88,-499.04 1637.2,-492.17"/>
</g>
<!-- model.post_process.input_9&#45;&gt;model.post_process.labels -->
<g id="edge40" class="edge">
<title>model.post_process.input_9&#45;&gt;model.post_process.labels</title>
<path fill="none" stroke="black" d="M1848.55,-543.09C1831.71,-541.24 1814.36,-539.46 1798,-538 1546.93,-515.61 1480.83,-542.23 1232,-502 1223.51,-500.63 1214.68,-498.83 1205.96,-496.83"/>
<polygon fill="black" stroke="black" points="1206.73,-493.42 1196.19,-494.5 1205.11,-500.23 1206.73,-493.42"/>
</g>
<!-- model.post_process.input_9&#45;&gt;input_model.post_process.output_0 -->
<g id="edge47" class="edge">
<title>model.post_process.input_9&#45;&gt;input_model.post_process.output_0</title>
<path fill="none" stroke="black" d="M1919.42,-538.16C1856.51,-498.3 1697.72,-397.69 1616.9,-346.48"/>
<polygon fill="black" stroke="black" points="1618.7,-343.48 1608.38,-341.08 1614.95,-349.39 1618.7,-343.48"/>
</g>
<!-- model.post_process..keep.1 -->
<g id="node16" class="node">
<title>model.post_process..keep.1</title>
<polygon fill="none" stroke="black" points="1532.5,-413 1293.5,-413 1293.5,-377 1532.5,-377 1532.5,-413"/>
<text text-anchor="middle" x="1413" y="-391.3" font-family="Times,serif" font-size="14.00">_batched_nms_coordinate_trick</text>
</g>
<!-- model.post_process..keep.1&#45;&gt;input_model.post_process.output_0 -->
<g id="edge49" class="edge">
<title>model.post_process..keep.1&#45;&gt;input_model.post_process.output_0</title>
<path fill="none" stroke="black" d="M1446.63,-376.97C1464.7,-367.81 1487.52,-356.26 1508.48,-345.64"/>
<polygon fill="black" stroke="black" points="1510.3,-348.65 1517.64,-341 1507.14,-342.4 1510.3,-348.65"/>
</g>
<!-- model.post_process.boxes.5&#45;&gt;model.post_process..keep.1 -->
<g id="edge24" class="edge">
<title>model.post_process.boxes.5&#45;&gt;model.post_process..keep.1</title>
<path fill="none" stroke="black" d="M1360.54,-448.8C1369.56,-439.71 1379.69,-429.53 1388.61,-420.54"/>
<polygon fill="black" stroke="black" points="1391.21,-422.89 1395.78,-413.33 1386.25,-417.96 1391.21,-422.89"/>
</g>
<!-- model.post_process.scores&#45;&gt;model.post_process..keep.1 -->
<g id="edge34" class="edge">
<title>model.post_process.scores&#45;&gt;model.post_process..keep.1</title>
<path fill="none" stroke="black" d="M1508.55,-456.49C1490.77,-445.24 1467.73,-430.65 1448.73,-418.62"/>
<polygon fill="black" stroke="black" points="1450.36,-415.51 1440.04,-413.12 1446.62,-421.42 1450.36,-415.51"/>
</g>
<!-- model.post_process.labels&#45;&gt;model.post_process..keep.1 -->
<g id="edge44" class="edge">
<title>model.post_process.labels&#45;&gt;model.post_process..keep.1</title>
<path fill="none" stroke="black" d="M1198.78,-456.49C1241.7,-444.37 1298.31,-428.38 1342.56,-415.89"/>
<polygon fill="black" stroke="black" points="1343.71,-419.2 1352.38,-413.12 1341.8,-412.47 1343.71,-419.2"/>
</g>
<!-- model.post_process.output_0 -->
<g id="node20" class="node">
<title>model.post_process.output_0</title>
<ellipse fill="none" stroke="black" cx="1568" cy="-234" rx="145.67" ry="18"/>
<text text-anchor="middle" x="1568" y="-230.3" font-family="Times,serif" font-size="14.00">model.post_process.output_0</text>
</g>
<!-- model.output_0 -->
<g id="node22" class="node">
<title>model.output_0</title>
<ellipse fill="none" stroke="black" cx="1568" cy="-162" rx="83.39" ry="18"/>
<text text-anchor="middle" x="1568" y="-158.3" font-family="Times,serif" font-size="14.00">model.output_0</text>
</g>
<!-- model.post_process.output_0&#45;&gt;model.output_0 -->
<g id="edge56" class="edge">
<title>model.post_process.output_0&#45;&gt;model.output_0</title>
<path fill="none" stroke="black" d="M1568,-215.7C1568,-207.98 1568,-198.71 1568,-190.11"/>
<polygon fill="black" stroke="black" points="1571.5,-190.1 1568,-180.1 1564.5,-190.1 1571.5,-190.1"/>
</g>
<!-- input_model.post_process.output_0&#45;&gt;model.post_process.output_0 -->
<g id="edge55" class="edge">
<title>input_model.post_process.output_0&#45;&gt;model.post_process.output_0</title>
<path fill="none" stroke="black" d="M1568,-287.8C1568,-279.71 1568,-270.76 1568,-262.55"/>
<polygon fill="black" stroke="black" points="1571.5,-262.33 1568,-252.33 1564.5,-262.33 1571.5,-262.33"/>
</g>
<!-- input_output_0 -->
<g id="node24" class="node">
<title>input_output_0</title>
<path fill="none" stroke="black" d="M1642.5,-108C1642.5,-108 1493.5,-108 1493.5,-108 1487.5,-108 1481.5,-102 1481.5,-96 1481.5,-96 1481.5,-84 1481.5,-84 1481.5,-78 1487.5,-72 1493.5,-72 1493.5,-72 1642.5,-72 1642.5,-72 1648.5,-72 1654.5,-78 1654.5,-84 1654.5,-84 1654.5,-96 1654.5,-96 1654.5,-102 1648.5,-108 1642.5,-108"/>
<text text-anchor="middle" x="1568" y="-86.3" font-family="Times,serif" font-size="14.00">mul div sub stack min</text>
</g>
<!-- model.output_0&#45;&gt;input_output_0 -->
<g id="edge57" class="edge">
<title>model.output_0&#45;&gt;input_output_0</title>
<path fill="none" stroke="black" d="M1568,-143.7C1568,-135.98 1568,-126.71 1568,-118.11"/>
<polygon fill="black" stroke="black" points="1571.5,-118.1 1568,-108.1 1564.5,-118.1 1571.5,-118.1"/>
</g>
<!-- output_0 -->
<g id="node23" class="node">
<title>output_0</title>
<ellipse fill="none" stroke="black" cx="1568" cy="-18" rx="51.99" ry="18"/>
<text text-anchor="middle" x="1568" y="-14.3" font-family="Times,serif" font-size="14.00">output_0</text>
</g>
<!-- input_output_0&#45;&gt;output_0 -->
<g id="edge58" class="edge">
<title>input_output_0&#45;&gt;output_0</title>
<path fill="none" stroke="black" d="M1568,-71.7C1568,-63.98 1568,-54.71 1568,-46.11"/>
<polygon fill="black" stroke="black" points="1571.5,-46.1 1568,-36.1 1564.5,-46.1 1571.5,-46.1"/>
</g>
</g>
</svg>
